<?xml version="1.0" encoding="UTF-8"?>
<svg version="1.1" xmlns="http://www.w3.org/2000/svg" width="612" height="408" viewBox="217 146 185 113">
<path d="M0 0 C0.66 0.66 1.32 1.32 2 2 C1.625 5.625 1.625 5.625 1 9 C0.34 9 -0.32 9 -1 9 C-1 9.66 -1 10.32 -1 11 C-2.94921875 12.59375 -2.94921875 12.59375 -5.6875 14.5 C-9.98203663 17.54631663 -14.21062401 20.65190439 -18.375 23.875 C-18.90996094 24.28733887 -19.44492188 24.69967773 -19.99609375 25.12451172 C-22.88885816 27.35693378 -25.77044166 29.60296591 -28.64453125 31.859375 C-29.23766113 32.32230957 -29.83079102 32.78524414 -30.44189453 33.26220703 C-31.58539247 34.15493507 -32.72582253 35.05161002 -33.86279297 35.95263672 C-37.77486554 39 -37.77486554 39 -40 39 C-40 39.66 -40 40.32 -40 41 C-39.41806885 41.27328125 -38.8361377 41.5465625 -38.23657227 41.828125 C-36.04039657 42.9788338 -34.18573549 44.25047965 -32.21484375 45.75 C-31.51939453 46.2759375 -30.82394531 46.801875 -30.10742188 47.34375 C-29.39134766 47.8903125 -28.67527344 48.436875 -27.9375 49 C-26.50962643 50.08400787 -25.08126007 51.16736702 -23.65234375 52.25 C-22.70862915 52.96929687 -22.70862915 52.96929687 -21.74584961 53.703125 C-20.19958075 54.8517448 -18.6027014 55.9315324 -17 57 C-17 57.66 -17 58.32 -17 59 C-16.46890625 59.07347656 -15.9378125 59.14695313 -15.390625 59.22265625 C-12.04528996 60.31043676 -9.51094053 62.32716388 -6.75 64.4375 C-6.19570313 64.84548828 -5.64140625 65.25347656 -5.0703125 65.67382812 C-3.67189091 66.72953309 -2.33049348 67.85987587 -1 69 C-1 69.66 -1 70.32 -1 71 C-0.34 71 0.32 71 1 71 C1.625 74.375 1.625 74.375 2 78 C0 80 0 80 -3.5 80.625 C-8.59749387 80.46115198 -11.27967396 77.8123119 -15.00390625 74.5703125 C-18.68927578 71.40867867 -22.54270353 68.52162377 -26.4375 65.625 C-27.13617188 65.10131836 -27.83484375 64.57763672 -28.5546875 64.03808594 C-31.33621789 61.95736023 -34.10838579 59.92774281 -37 58 C-37 57.34 -37 56.68 -37 56 C-37.53367188 55.92394531 -38.06734375 55.84789062 -38.6171875 55.76953125 C-41.96223727 54.68924468 -44.32028879 52.7927562 -47.125 50.6875 C-48.17945313 49.90761719 -49.23390625 49.12773437 -50.3203125 48.32421875 C-52.7619624 46.20646118 -54.00361754 45.02028433 -55 42 C-54.85621007 38.54904175 -54.60344509 36.66717973 -52.26171875 34.078125 C-49.87736523 31.88732004 -47.4482536 29.79495768 -44.9375 27.75 C-44.08027344 27.04359375 -43.22304687 26.3371875 -42.33984375 25.609375 C-40 24 -40 24 -37 24 C-36.67 23.01 -36.34 22.02 -36 21 C-34.05859375 19.37890625 -34.05859375 19.37890625 -31.4375 17.5625 C-25.68848727 13.5110304 -20.07316959 9.30676722 -14.48413086 5.03735352 C-13.50391968 4.29569946 -13.50391968 4.29569946 -12.50390625 3.5390625 C-11.92455322 3.09771973 -11.3452002 2.65637695 -10.74829102 2.20166016 C-6.84076851 -0.48411359 -4.6666814 -1.47368886 0 0 Z " fill="#1A82E4" transform="translate(272,164)"/>
<path d="M0 0 C0.99 0.66 1.98 1.32 3 2 C3 2.66 3 3.32 3 4 C3.53625 4.0721875 4.0725 4.144375 4.625 4.21875 C7.92723441 5.30501132 10.32621706 7.3526655 13 9.5 C14.15310934 10.40693253 15.30676854 11.31316633 16.4609375 12.21875 C17.04584961 12.68023437 17.63076172 13.14171875 18.23339844 13.6171875 C21.00140085 15.78384942 23.81046914 17.89433981 26.625 20 C27.58664062 20.721875 28.54828125 21.44375 29.5390625 22.1875 C31.32659978 23.50403539 33.15281931 24.76854621 35 26 C35 26.66 35 27.32 35 28 C35.57234375 28.10183594 36.1446875 28.20367187 36.734375 28.30859375 C41.03781999 29.62188645 44.1872806 32.56003097 47 36 C48.14597762 39.25925892 47.8019267 40.44861034 47 44 C45.16501638 46.28820247 43.53209221 47.37946099 41 49 C40.34 49 39.68 49 39 49 C39 49.66 39 50.32 39 51 C37.63789086 51.9534764 36.26704889 52.89642641 34.859375 53.78125 C32.0291441 55.63635933 29.39761471 57.74295282 26.734375 59.828125 C25 61 25 61 23 61 C22.67 61.99 22.34 62.98 22 64 C21.01 64 20.02 64 19 64 C18.67 64.99 18.34 65.98 18 67 C15.88233888 68.66819835 13.79456086 70.19070625 11.5625 71.6875 C10.6643457 72.31108398 10.6643457 72.31108398 9.74804688 72.94726562 C5.27170567 76 5.27170567 76 3 76 C3 76.66 3 77.32 3 78 C-1.04192978 80.69461986 -3.2051496 80.23200889 -8 80 C-9 79 -9 79 -9.484375 75.28515625 C-9.44212942 72.78655236 -9.35235939 71.45908642 -7.81835938 69.46044922 C-6.03297174 67.98000234 -4.19288216 66.70448774 -2.25 65.4375 C-0.79073999 64.41799177 0.6675458 63.39708809 2.125 62.375 C2.90875 61.83746094 3.6925 61.29992187 4.5 60.74609375 C9.00680771 57.59837024 13.36670185 54.2538639 17.75 50.9375 C19.43168432 49.67497186 21.11393962 48.41320376 22.796875 47.15234375 C23.51198242 46.61601318 24.22708984 46.07968262 24.96386719 45.52709961 C26.97591146 44.01806641 28.98795573 42.5090332 31 41 C29.86653385 37.59960154 29.16879733 37.12164474 26.34375 35.1015625 C25.57611328 34.5456543 24.80847656 33.98974609 24.01757812 33.41699219 C23.18677734 32.82563477 22.35597656 32.23427734 21.5 31.625 C19.76981093 30.37380844 18.04066715 29.12117029 16.3125 27.8671875 C15.43078125 27.2287793 14.5490625 26.59037109 13.640625 25.93261719 C8.81326598 22.39957595 4.08224259 18.74169799 -0.65429688 15.08837891 C-1.31494141 14.57968262 -1.97558594 14.07098633 -2.65625 13.546875 C-3.23181641 13.10182617 -3.80738281 12.65677734 -4.40039062 12.19824219 C-5.89497958 11.07866914 -7.44621654 10.03585564 -9 9 C-9.40843923 6.28796348 -9.13336867 3.7562858 -9 1 C-5.64847025 -1.11022243 -3.76699068 -1.15907406 0 0 Z " fill="#1E97F0" transform="translate(354,164)"/>
<path d="M0 0 C2.375 1.4375 2.375 1.4375 3.4375 3.875 C3.34427256 9.18896436 1.3214138 13.54405123 -0.625 18.4375 C-1.1383387 19.91209059 -1.63934719 21.39106086 -2.125 22.875 C-2.36734375 23.60976562 -2.6096875 24.34453125 -2.859375 25.1015625 C-3.23835938 26.25785156 -3.23835938 26.25785156 -3.625 27.4375 C-8.87514035 43.43556918 -14.5503397 59.28408093 -20.2746582 75.11743164 C-23.01897265 82.71883574 -25.70789394 90.33798375 -28.33007812 97.98242188 C-32.64575131 110.45825131 -32.64575131 110.45825131 -34.625 112.4375 C-37.5 112.75 -37.5 112.75 -40.625 112.4375 C-42.5625 110.8125 -42.5625 110.8125 -43.625 108.4375 C-43.11712514 102.80709423 -41.12630575 97.56697736 -39.3125 92.25 C-38.99345703 91.30382812 -38.67441406 90.35765625 -38.34570312 89.3828125 C-36.53840041 84.04556415 -34.66619397 78.73901768 -32.703125 73.45703125 C-31.18475977 69.20450834 -29.78802774 64.91347891 -28.375 60.625 C-25.62855299 52.309307 -22.71708623 44.06741192 -19.68774414 35.85083008 C-17.88367703 30.94458895 -16.12947808 26.02695768 -14.4453125 21.078125 C-14.08816162 20.03124512 -13.73101074 18.98436523 -13.36303711 17.90576172 C-12.67798158 15.88864492 -11.99881865 13.86951436 -11.32641602 11.84814453 C-11.01631592 10.93661621 -10.70621582 10.02508789 -10.38671875 9.0859375 C-10.11819092 8.28333496 -9.84966309 7.48073242 -9.57299805 6.65380859 C-8.531088 4.21794472 -7.38626897 2.41603122 -5.625 0.4375 C-2.625 -0.5625 -2.625 -0.5625 0 0 Z " fill="#1E92EC" transform="translate(331.625,146.5625)"/>
<path d="M0 0 C0.66 0.99 1.32 1.98 2 3 C1.34 3 0.68 3 0 3 C-0.33 6.63 -0.66 10.26 -1 14 C1.97 13.01 4.94 12.02 8 11 C8.33 9.35 8.66 7.7 9 6 C10.054084 9.18263362 9.97769879 10.85528511 8.70703125 13.94140625 C8.40837158 14.68430908 8.10971191 15.42721191 7.80200195 16.19262695 C7.47546631 16.97468506 7.14893066 17.75674316 6.8125 18.5625 C6.15550209 20.19240706 5.49924883 21.82261448 4.84375 23.453125 C4.5240625 24.23880859 4.204375 25.02449219 3.875 25.83398438 C1.27372228 32.27330802 -0.95551924 38.78370744 -2.9375 45.4375 C-7.90834048 61.90834048 -7.90834048 61.90834048 -11 65 C-13.875 65.3125 -13.875 65.3125 -17 65 C-18.9375 63.375 -18.9375 63.375 -20 61 C-19.49212514 55.36959423 -17.50130575 50.12947736 -15.6875 44.8125 C-15.36845703 43.86632812 -15.04941406 42.92015625 -14.72070312 41.9453125 C-12.92226452 36.63424128 -11.06217483 31.3525656 -9.10546875 26.09765625 C-7.09370254 20.46044563 -5.24355081 14.76742991 -3.37304688 9.08203125 C-3.08107422 8.19773438 -2.78910156 7.3134375 -2.48828125 6.40234375 C-2.22571533 5.60304443 -1.96314941 4.80374512 -1.69262695 3.98022461 C-1 2 -1 2 0 0 Z " fill="#1C93F6" transform="translate(308,194)"/>
<path d="M0 0 C0.66 0.66 1.32 1.32 2 2 C1.625 5.625 1.625 5.625 1 9 C0.34 9 -0.32 9 -1 9 C-1 9.66 -1 10.32 -1 11 C-4.4352048 13.29013653 -5.985331 13.17842973 -10 13 C-10 13.99 -10 14.98 -10 16 C-10.639375 16.103125 -11.27875 16.20625 -11.9375 16.3125 C-12.618125 16.539375 -13.29875 16.76625 -14 17 C-14.33 17.99 -14.66 18.98 -15 20 C-20.75 19.125 -20.75 19.125 -23 18 C-23 17.34 -23 16.68 -23 16 C-23.66 15.67 -24.32 15.34 -25 15 C-19.8559346 7.90473737 -9.39019588 -2.96532502 0 0 Z " fill="#1D97FA" transform="translate(272,164)"/>
<path d="M0 0 C0.99 0.66 1.98 1.32 3 2 C3 2.66 3 3.32 3 4 C3.61875 4.103125 4.2375 4.20625 4.875 4.3125 C7 5 7 5 9 8 C8.360625 8.20625 7.72125 8.4125 7.0625 8.625 C4.69289473 9.88742026 4.69289473 9.88742026 4.125 12.9375 C3.69212888 16.17537932 3.69212888 16.17537932 6 19 C0.51751909 16.41540186 -4.64280536 13.23186078 -9 9 C-9.97482994 5.85710567 -9.64845101 4.30120512 -9 1 C-5.64847025 -1.11022243 -3.76699068 -1.15907406 0 0 Z " fill="#1D8ADE" transform="translate(354,164)"/>
<path d="M0 0 C0 8 0 8 -1 10 C-1.66 10 -2.32 10 -3 10 C-3 10.66 -3 11.32 -3 12 C-7.04192978 14.69461986 -9.2051496 14.23200889 -14 14 C-15 13 -15 13 -15.375 9.1875 C-15.33246435 5.79072429 -15.23232261 5.25223598 -12.8125 2.625 C-8.09850977 -0.0986388 -5.40668862 -1.54476818 0 0 Z " fill="#1E9CF8" transform="translate(360,230)"/>
<path d="M0 0 C0.66 0.33 1.32 0.66 2 1 C2 1.66 2 2.32 2 3 C2.55171875 3.08121094 3.1034375 3.16242188 3.671875 3.24609375 C6.78011549 4.25262129 8.74211735 5.98359728 11.25 8.0625 C12.14203125 8.79597656 13.0340625 9.52945313 13.953125 10.28515625 C14.62859375 10.85105469 15.3040625 11.41695312 16 12 C15.34 12.66 14.68 13.32 14 14 C13.34 13.34 12.68 12.68 12 12 C9.41645782 11.83312552 9.41645782 11.83312552 7 12 C7.57344937 14.86724686 7.8614515 15.8614515 10 18 C8.02 18.99 8.02 18.99 6 20 C4.49428343 18.88266271 2.99555708 17.75589965 1.5 16.625 C0.24703125 15.68527344 0.24703125 15.68527344 -1.03125 14.7265625 C-2.00578125 13.87191406 -2.00578125 13.87191406 -3 13 C-3 12.34 -3 11.68 -3 11 C-2.0409375 10.5978125 -2.0409375 10.5978125 -1.0625 10.1875 C1.33131686 9.11332248 1.33131686 9.11332248 2 6 C2.99 6 3.98 6 5 6 C4.360625 5.7525 3.72125 5.505 3.0625 5.25 C1 4 1 4 0.25 1.875 C0.1675 1.25625 0.085 0.6375 0 0 Z " fill="#187AD5" transform="translate(253,220)"/>
<path d="M0 0 C0.66 1.32 1.32 2.64 2 4 C2.99 3.01 3.98 2.02 5 1 C5.66 1.33 6.32 1.66 7 2 C7.17835515 6.54805635 6.99785435 9.8794254 5 14 C4.34 14 3.68 14 3 14 C2.67 14.66 2.34 15.32 2 16 C-1.0625 16.625 -1.0625 16.625 -4 17 C-3.88487847 15.27014758 -3.75744323 13.54111249 -3.625 11.8125 C-3.55539062 10.84957031 -3.48578125 9.88664063 -3.4140625 8.89453125 C-2.95867112 5.71108774 -2.35219998 2.35219998 0 0 Z " fill="#1E9BFB" transform="translate(311,191)"/>
<path d="M0 0 C0.33 0 0.66 0 1 0 C1 4.95 1 9.9 1 15 C0.01 15.33 -0.98 15.66 -2 16 C-1.67 16.66 -1.34 17.32 -1 18 C0.65 18 2.3 18 4 18 C4.144375 17.21625 4.28875 16.4325 4.4375 15.625 C5 13 5 13 6 11 C6.66 11 7.32 11 8 11 C7.67 9.35 7.34 7.7 7 6 C7.99 6 8.98 6 10 6 C9.47275413 11.14064719 7.8074944 18.1925056 4 22 C1.125 22.3125 1.125 22.3125 -2 22 C-3.9375 20.375 -3.9375 20.375 -5 18 C-4.51978537 13.66575518 -3.35419421 9.73798319 -1.9375 5.625 C-1.57527344 4.56539062 -1.21304687 3.50578125 -0.83984375 2.4140625 C-0.56269531 1.61742187 -0.28554688 0.82078125 0 0 Z " fill="#1A81DC" transform="translate(293,237)"/>
<path d="M0 0 C0.66 0.66 1.32 1.32 2 2 C1.625 5.625 1.625 5.625 1 9 C0.34 9 -0.32 9 -1 9 C-1 9.66 -1 10.32 -1 11 C-2.65 11.66 -4.3 12.32 -6 13 C-6.33 12.01 -6.66 11.02 -7 10 C-6.01 10 -5.02 10 -4 10 C-4 9.34 -4 8.68 -4 8 C-4.66 7.67 -5.32 7.34 -6 7 C-4.68 6.01 -3.36 5.02 -2 4 C-5.83134499 3.781066 -8.58442859 4.19733731 -12 6 C-12.33 6.99 -12.66 7.98 -13 9 C-13.66 8.67 -14.32 8.34 -15 8 C-15.99 9.32 -16.98 10.64 -18 12 C-19.32 11.67 -20.64 11.34 -22 11 C-19.91986415 9.37076065 -17.83612026 7.7465453 -15.75 6.125 C-15.16347656 5.66480469 -14.57695312 5.20460937 -13.97265625 4.73046875 C-5.59291582 -1.76618394 -5.59291582 -1.76618394 0 0 Z " fill="#1C80D0" transform="translate(272,164)"/>
<path d="M0 0 C0.33 0.66 0.66 1.32 1 2 C2.11375 2.1546875 2.11375 2.1546875 3.25 2.3125 C6.9303652 3.2325913 8.5094901 5.2248604 11 8 C8.08517222 8.80967438 6.53886783 9.21845993 3.6875 8.0625 C3.130625 7.711875 2.57375 7.36125 2 7 C1.01 8.32 0.02 9.64 -1 11 C-0.67 11.66 -0.34 12.32 0 13 C-3.59513939 11.3407049 -6.86406334 9.42322378 -10 7 C-10 5.68 -10 4.36 -10 3 C-9.01 3 -8.02 3 -7 3 C-7 3.66 -7 4.32 -7 5 C-6.401875 4.360625 -5.80375 3.72125 -5.1875 3.0625 C-3 1 -3 1 0 0 Z " fill="#1B86F1" transform="translate(229,203)"/>
<path d="M0 0 C0.721875 0.391875 1.44375 0.78375 2.1875 1.1875 C2.1875 1.8475 2.1875 2.5075 2.1875 3.1875 C1.424375 3.001875 0.66125 2.81625 -0.125 2.625 C-2.90217375 1.95930827 -2.90217375 1.95930827 -5.8125 3.1875 C-5.93625 4.280625 -6.06 5.37375 -6.1875 6.5 C-6.8125 10.1875 -6.8125 10.1875 -8.8125 13.1875 C-9.35832579 14.79768608 -9.85463339 16.42512919 -10.3125 18.0625 C-11.31075494 21.52852221 -12.37585973 24.87217629 -13.8125 28.1875 C-14.4725 28.1875 -15.1325 28.1875 -15.8125 28.1875 C-15.8125 29.8375 -15.8125 31.4875 -15.8125 33.1875 C-16.4725 33.1875 -17.1325 33.1875 -17.8125 33.1875 C-18.1425 34.1775 -18.4725 35.1675 -18.8125 36.1875 C-18.34235609 30.89838099 -16.9470042 26.39138051 -15.046875 21.44140625 C-14.11271612 18.97889248 -13.23609573 16.52012241 -12.390625 14.02734375 C-11.88555234 12.58068179 -11.38034451 11.13406702 -10.875 9.6875 C-10.64659424 8.99277588 -10.41818848 8.29805176 -10.18286133 7.58227539 C-9.00655736 4.28870515 -8.0488488 2.37723964 -5.296875 0.16796875 C-2.8125 -0.8125 -2.8125 -0.8125 0 0 Z " fill="#1A73C3" transform="translate(331.8125,146.8125)"/>
<path d="M0 0 C3.81684226 1.55500981 6.19195732 4.03595495 9 7 C8.34 7 7.68 7 7 7 C6.67 7.66 6.34 8.32 6 9 C5.34 9.66 4.68 10.32 4 11 C3.67 11.66 3.34 12.32 3 13 C2.67 12.01 2.34 11.02 2 10 C-1.39914975 11.13304992 -2.05254451 12.12518475 -4 15 C-4.66 14.67 -5.32 14.34 -6 14 C-6 12.68 -6 11.36 -6 10 C-7.91666921 7.74934898 -7.91666921 7.74934898 -10 6 C-9.443125 6.185625 -8.88625 6.37125 -8.3125 6.5625 C-5.4926844 7.09597863 -3.7160343 6.92916963 -1 6 C0.46804363 4.14853436 0.46804363 4.14853436 1 2 C0.67 1.34 0.34 0.68 0 0 Z " fill="#1C89E5" transform="translate(390,192)"/>
<path d="M0 0 C1.35439668 2.70879335 1.06501451 5.00933268 1 8 C-0.32 7.34 -1.64 6.68 -3 6 C-2.67 7.65 -2.34 9.3 -2 11 C-3.98 11.66 -5.96 12.32 -8 13 C-8 12.34 -8 11.68 -8 11 C-8.66 10.67 -9.32 10.34 -10 10 C-10 9.01 -10 8.02 -10 7 C-10.33 7.66 -10.66 8.32 -11 9 C-12.32 8.67 -13.64 8.34 -15 8 C-12.6875 5.5 -12.6875 5.5 -10 3 C-9.01 3 -8.02 3 -7 3 C-6.67 3.33 -6.34 3.66 -6 4 C-5.67 3.34 -5.34 2.68 -5 2 C-2 0 -2 0 0 0 Z " fill="#21A0F9" transform="translate(399,199)"/>
<path d="M0 0 C0.66 0.33 1.32 0.66 2 1 C1.07347299 2.17539996 0.13336613 3.34010577 -0.8125 4.5 C-1.33457031 5.1496875 -1.85664063 5.799375 -2.39453125 6.46875 C-4 8 -4 8 -7 8 C-9.20808081 13.19548425 -8.93402724 16.58264203 -8 22 C-9.98 22.99 -9.98 22.99 -12 24 C-11.67 23.01 -11.34 22.02 -11 21 C-11.27571139 18.99124558 -11.60235737 16.98821313 -12 15 C-14.31 15.33 -16.62 15.66 -19 16 C-17.6875 14 -17.6875 14 -16 12 C-15.01 12 -14.02 12 -13 12 C-12.67 11.01 -12.34 10.02 -12 9 C-9.53125 6.9921875 -9.53125 6.9921875 -6.5 4.875 C-3.10369507 2.61767474 -3.10369507 2.61767474 0 0 Z " fill="#177CDB" transform="translate(248,176)"/>
<path d="M0 0 C0.66 0.99 1.32 1.98 2 3 C1.34 3 0.68 3 0 3 C-0.03738281 3.80824219 -0.07476562 4.61648437 -0.11328125 5.44921875 C-0.17902344 6.51785156 -0.24476563 7.58648437 -0.3125 8.6875 C-0.37050781 9.74324219 -0.42851562 10.79898438 -0.48828125 11.88671875 C-1.04537472 15.27605838 -2.1912414 17.12075162 -4 20 C-4.7689752 22.65055171 -4.7689752 22.65055171 -5.1875 25.3125 C-5.34605469 26.19550781 -5.50460937 27.07851562 -5.66796875 27.98828125 C-5.77753906 28.65214844 -5.88710938 29.31601563 -6 30 C-6.66 30 -7.32 30 -8 30 C-8.33 30.99 -8.66 31.98 -9 33 C-9.33 32.67 -9.66 32.34 -10 32 C-9.5803276 25.56502323 -7.26866416 19.98509426 -5 14 C-4.07250165 11.44133764 -3.16080261 8.87714555 -2.25 6.3125 C-1.82203125 5.11238281 -1.3940625 3.91226563 -0.953125 2.67578125 C-0.63859375 1.79277344 -0.3240625 0.90976563 0 0 Z " fill="#1A78C9" transform="translate(308,194)"/>
<path d="M0 0 C2.36841312 1.57894208 4.06745228 2.9754262 6 5 C3.66666667 7.33333333 1.33333333 9.66666667 -1 12 C-1.99 12 -2.98 12 -4 12 C-5.21513944 5.6812749 -5.21513944 5.6812749 -4.25 2.625 C-3 1 -3 1 0 0 Z " fill="#1A7EE2" transform="translate(243,185)"/>
<path d="M0 0 C1.2065625 0.0309375 1.2065625 0.0309375 2.4375 0.0625 C2.4375 1.0525 2.4375 2.0425 2.4375 3.0625 C2.7778125 4.0525 2.7778125 4.0525 3.125 5.0625 C3.228125 5.7225 3.33125 6.3825 3.4375 7.0625 C2 8.8125 2 8.8125 0.4375 10.0625 C0.4375 9.4025 0.4375 8.7425 0.4375 8.0625 C-1.5425 8.0625 -3.5225 8.0625 -5.5625 8.0625 C-5.2325 7.464375 -4.9025 6.86625 -4.5625 6.25 C-3.35462012 4.00863529 -3.35462012 4.00863529 -3.5625 1.0625 C-2.5625 0.0625 -2.5625 0.0625 0 0 Z M-9.5625 8.0625 C-6.79973823 8.58518466 -4.2364124 9.17119587 -1.5625 10.0625 C-2.2225 11.3825 -2.8825 12.7025 -3.5625 14.0625 C-3.8925 13.0725 -4.2225 12.0825 -4.5625 11.0625 C-5.8825 11.3925 -7.2025 11.7225 -8.5625 12.0625 C-8.2325 11.4025 -7.9025 10.7425 -7.5625 10.0625 C-8.2225 9.4025 -8.8825 8.7425 -9.5625 8.0625 Z " fill="#23A0FC" transform="translate(378.5625,212.9375)"/>
<path d="M0 0 C0.66 0.33 1.32 0.66 2 1 C1.67 1.33 1.34 1.66 1 2 C3.97 2.495 3.97 2.495 7 3 C7.66 4.98 8.32 6.96 9 9 C7.02 10.65 5.04 12.3 3 14 C2.34 13.67 1.68 13.34 1 13 C1 10.66666667 1 8.33333333 1 6 C-1.49064888 5.31292445 -3.37886292 5 -6 5 C-4.02 3.35 -2.04 1.7 0 0 Z " fill="#188BE8" transform="translate(358,225)"/>
<path d="M0 0 C1.98 1.32 3.96 2.64 6 4 C4.875 6.4375 4.875 6.4375 3 9 C0.0625 10.0625 0.0625 10.0625 -3 10 C-5.375 8.0625 -5.375 8.0625 -7 6 C-6.34 5.34 -5.68 4.68 -5 4 C-5.33 3.34 -5.66 2.68 -6 2 C-4.125 1.375 -4.125 1.375 -2 1 C-1.34 1.66 -0.68 2.32 0 3 C0 2.01 0 1.02 0 0 Z " fill="#26A1FB" transform="translate(386,190)"/>
<path d="M0 0 C1.48253267 0.61697319 2.96095174 1.24383896 4.4375 1.875 C5.67306641 2.39707031 5.67306641 2.39707031 6.93359375 2.9296875 C9 4 9 4 10 6 C9.67 6.99 9.34 7.98 9 9 C5.94152152 9.54372951 3.11227195 10 0 10 C-0.66 9.34 -1.32 8.68 -2 8 C-1.34 8 -0.68 8 0 8 C0.99435406 4.90645403 0.87840996 3.09720845 0 0 Z " fill="#24A1FA" transform="translate(366,177)"/>
<path d="M0 0 C1.32 0.99 2.64 1.98 4 3 C3.21718695 4.33855056 2.42348123 5.67073644 1.625 7 C0.96371094 8.11375 0.96371094 8.11375 0.2890625 9.25 C-0.13632813 9.8275 -0.56171875 10.405 -1 11 C-1.66 11 -2.32 11 -3 11 C-3 10.34 -3 9.68 -3 9 C-3.99 9 -4.98 9 -6 9 C-6.33 9.66 -6.66 10.32 -7 11 C-6.85969405 7.98342209 -6.70648535 5.76158727 -4.59765625 3.48828125 C-3.11095765 2.26743934 -1.55865102 1.12753478 0 0 Z " fill="#1786F7" transform="translate(225,197)"/>
<path d="M0 0 C0.40729228 2.32156597 0.74438677 4.6568787 1 7 C0.01 7.66 -0.98 8.32 -2 9 C-4.26171875 8.3203125 -4.26171875 8.3203125 -6.6875 7.125 C-7.49574219 6.73570312 -8.30398437 6.34640625 -9.13671875 5.9453125 C-9.75160156 5.63335937 -10.36648437 5.32140625 -11 5 C-4.36842105 -2.18421053 -4.36842105 -2.18421053 0 0 Z " fill="#2190F7" transform="translate(237,191)"/>
<path d="M0 0 C0.66 0.33 1.32 0.66 2 1 C1.21382218 4.79985949 0.04021778 7.20453935 -3.125 9.625 C-6.83074376 11.39731223 -9.91543717 11.65385061 -14 12 C-9.73412126 7.45890328 -4.96387672 3.75264754 0 0 Z " fill="#208CE0" transform="translate(374,213)"/>
<path d="M0 0 C0.99 0 1.98 0 3 0 C2.47275413 5.14064719 0.8074944 12.1925056 -3 16 C-4.99958364 16.04080783 -7.00045254 16.04254356 -9 16 C-9.33 15.01 -9.66 14.02 -10 13 C-6.535 12.505 -6.535 12.505 -3 12 C-2.7834375 10.824375 -2.7834375 10.824375 -2.5625 9.625 C-2 7 -2 7 -1 5 C-0.34 5 0.32 5 1 5 C0.67 3.35 0.34 1.7 0 0 Z " fill="#1C6EBC" transform="translate(300,243)"/>
<path d="M0 0 C3.465 1.98 3.465 1.98 7 4 C6.01 5.485 6.01 5.485 5 7 C4.34 7 3.68 7 3 7 C3 7.66 3 8.32 3 9 C1.35 9.33 -0.3 9.66 -2 10 C-2.82638376 7.10765685 -3 5.11257569 -3 2 C-2.01 2 -1.02 2 0 2 C0 1.34 0 0.68 0 0 Z " fill="#1F94FB" transform="translate(263,230)"/>
<path d="M0 0 C1.8125 1.5625 1.8125 1.5625 3 3 C1.35 3.33 -0.3 3.66 -2 4 C-2 3.01 -2 2.02 -2 1 C-3.32 1 -4.64 1 -6 1 C-6.50423019 6.29441695 -5.18923033 8.81413519 -2 13 C-4.49361571 11.79618552 -6.68143083 10.54571278 -9 9 C-9.40843923 6.28796348 -9.13336867 3.7562858 -9 1 C-5.66508718 -1.09975992 -3.74008367 -1.24669456 0 0 Z " fill="#1C6BB6" transform="translate(354,164)"/>
<path d="M0 0 C1.32 0 2.64 0 4 0 C4 0.99 4 1.98 4 3 C5.65 2.67 7.3 2.34 9 2 C9.99 3.32 10.98 4.64 12 6 C10.02 5.34 8.04 4.68 6 4 C6 4.66 6 5.32 6 6 C4.35 6.66 2.7 7.32 1 8 C0.34 7.34 -0.32 6.68 -1 6 C-0.625 2.875 -0.625 2.875 0 0 Z " fill="#199EF6" transform="translate(348,165)"/>
<path d="M0 0 C0.66 0.33 1.32 0.66 2 1 C2.71860272 8.06626005 2.71860272 8.06626005 0.734375 10.64453125 C-3.24963977 14 -3.24963977 14 -6 14 C-6 14.66 -6 15.32 -6 16 C-7.65 16.66 -9.3 17.32 -11 18 C-11.66 17.34 -12.32 16.68 -13 16 C-9.7 14.35 -6.4 12.7 -3 11 C-3 9.35 -3 7.7 -3 6 C-2.01 6.33 -1.02 6.66 0 7 C0 4.69 0 2.38 0 0 Z " fill="#166FD3" transform="translate(399,199)"/>
<path d="M0 0 C0.66 0.33 1.32 0.66 2 1 C2.38281159 6.23175837 1.21854707 9.37802694 -1 14 C-1.66 13.67 -2.32 13.34 -3 13 C-3 9.37 -3 5.74 -3 2 C-2.34 2 -1.68 2 -1 2 C-0.67 1.34 -0.34 0.68 0 0 Z " fill="#1D88DF" transform="translate(308,219)"/>
<path d="M0 0 C0.66 0 1.32 0 2 0 C2 1.65 2 3.3 2 5 C1.34 5 0.68 5 0 5 C-0.2475 5.969375 -0.495 6.93875 -0.75 7.9375 C-1.1625 8.948125 -1.575 9.95875 -2 11 C-4.125 11.875 -4.125 11.875 -6 12 C-5.39009109 8.44219804 -4.4216319 5.3171411 -3 2 C-2.34 2 -1.68 2 -1 2 C-0.67 1.34 -0.34 0.68 0 0 Z " fill="#1880DB" transform="translate(300,224)"/>
<path d="M0 0 C0.33 0.66 0.66 1.32 1 2 C1.66 2.165 2.32 2.33 3 2.5 C3.66 2.665 4.32 2.83 5 3 C5.33 3.66 5.66 4.32 6 5 C5.38125 5.103125 4.7625 5.20625 4.125 5.3125 C1.63473516 5.87525373 1.63473516 5.87525373 0 9 C-0.99 9 -1.98 9 -3 9 C-3.66 7.68 -4.32 6.36 -5 5 C-3.35 3.35 -1.7 1.7 0 0 Z " fill="#1D90F9" transform="translate(253,222)"/>
<path d="M0 0 C0.66 0.33 1.32 0.66 2 1 C1.525625 1.680625 1.05125 2.36125 0.5625 3.0625 C-1.2225636 6.41841956 -1.63153086 9.24161481 -2 13 C-2.99 12.67 -3.98 12.34 -5 12 C-5.44041451 6.71502591 -5.44041451 6.71502591 -5 4 C-2.5 1.5 -2.5 1.5 0 0 Z " fill="#1E72C1" transform="translate(350,231)"/>
<path d="M0 0 C1.6852084 4.07679159 0.16939007 6.83075593 -1.4375 10.75 C-1.91058594 11.92046875 -2.38367188 13.0909375 -2.87109375 14.296875 C-3.24363281 15.18890625 -3.61617188 16.0809375 -4 17 C-4.33 17 -4.66 17 -5 17 C-5.33 13.7 -5.66 10.4 -6 7 C-4.7934375 6.6596875 -4.7934375 6.6596875 -3.5625 6.3125 C-2.716875 5.879375 -1.87125 5.44625 -1 5 C-0.10613836 2.45224694 -0.10613836 2.45224694 0 0 Z " fill="#156DC1" transform="translate(317,200)"/>
<path d="M0 0 C0.99 0.66 1.98 1.32 3 2 C2.175 2.7425 1.35 3.485 0.5 4.25 C-2.44844853 6.87387385 -2.44844853 6.87387385 -2 11 C-2.99 11.495 -2.99 11.495 -4 12 C-5.21513944 5.6812749 -5.21513944 5.6812749 -4.25 2.625 C-3 1 -3 1 0 0 Z " fill="#1F91FB" transform="translate(243,185)"/>
<path d="M0 0 C0.66 0.33 1.32 0.66 2 1 C1.07347299 2.17539996 0.13336613 3.34010577 -0.8125 4.5 C-1.59560547 5.47453125 -1.59560547 5.47453125 -2.39453125 6.46875 C-4 8 -4 8 -7 8 C-7.33 8.99 -7.66 9.98 -8 11 C-9.65 11.33 -11.3 11.66 -13 12 C-11.69311714 8.07935143 -9.85695653 7.2196784 -6.5 4.875 C-3.10369507 2.61767474 -3.10369507 2.61767474 0 0 Z " fill="#1765BA" transform="translate(248,176)"/>
<path d="M0 0 C0.66 0.33 1.32 0.66 2 1 C-1.16295209 4.88591257 -4.403115 8.50032811 -8 12 C-8.66 12.66 -9.32 13.32 -10 14 C-9.69227312 10.61500429 -9.44036657 8.53473084 -7.25 5.875 C-4.85846928 3.88205774 -2.45741205 1.91132048 0 0 Z " fill="#1862BC" transform="translate(227,192)"/>
<path d="M0 0 C4.95 0.99 4.95 0.99 10 2 C10.66 4.31 11.32 6.62 12 9 C8.98472262 7.59422879 6.4052059 5.93873852 3.75 3.9375 C3.04359375 3.41027344 2.3371875 2.88304687 1.609375 2.33984375 C1.07828125 1.89769531 0.5471875 1.45554688 0 1 C0 0.67 0 0.34 0 0 Z " fill="#1B7BCA" transform="translate(364,186)"/>
<path d="M0 0 C0.66 -0.33 1.32 -0.66 2 -1 C2.33 0.65 2.66 2.3 3 4 C-0.375 3.6875 -0.375 3.6875 -4 3 C-4.66 2.01 -5.32 1.02 -6 0 C-3.4791665 -1.26041675 -2.64903564 -0.66225891 0 0 Z " fill="#1D91F6" transform="translate(242,220)"/>
<path d="M0 0 C0.66 0 1.32 0 2 0 C1.67 1.98 1.34 3.96 1 6 C-2.01031744 6.93423645 -2.86650268 7.04449911 -6 6 C-4 4 -2 2 0 0 Z " fill="#1A83DD" transform="translate(382,207)"/>
<path d="M0 0 C0.5775 0.165 1.155 0.33 1.75 0.5 C4.26664369 1.14462031 4.26664369 1.14462031 8 1 C8 2.98 8 4.96 8 7 C6.02 7.99 6.02 7.99 4 9 C4.268125 8.443125 4.53625 7.88625 4.8125 7.3125 C4.874375 6.549375 4.93625 5.78625 5 5 C2.64573501 2.22877725 2.64573501 2.22877725 0 0 Z " fill="#1578D2" transform="translate(380,198)"/>
<path d="M0 0 C1.32 0.33 2.64 0.66 4 1 C2.87926138 1.83905565 1.75325453 2.67107831 0.625 3.5 C-0.31472656 4.19609375 -0.31472656 4.19609375 -1.2734375 4.90625 C-3 6 -3 6 -5 6 C-5 5.34 -5 4.68 -5 4 C-6.32 3.67 -7.64 3.34 -9 3 C-8.01 2.34 -7.02 1.68 -6 1 C-4.68 1.66 -3.36 2.32 -2 3 C-1.34 2.01 -0.68 1.02 0 0 Z " fill="#167FDC" transform="translate(382,219)"/>
<path d="M0 0 C0 0.66 0 1.32 0 2 C-0.763125 1.814375 -1.52625 1.62875 -2.3125 1.4375 C-5.08967375 0.77180827 -5.08967375 0.77180827 -8 2 C-8 2.66 -8 3.32 -8 4 C-8.99 4.33 -9.98 4.66 -11 5 C-10.11515888 2.19800311 -9.52111519 0.41329825 -7.1875 -1.4375 C-4.22706547 -2.19875459 -2.67668533 -1.33834267 0 0 Z " fill="#1F6AB5" transform="translate(334,148)"/>
<path d="M0 0 C0.66 0.33 1.32 0.66 2 1 C1.34 2.32 0.68 3.64 0 5 C-0.66 4.67 -1.32 4.34 -2 4 C-2.99 5.32 -3.98 6.64 -5 8 C-6.32 7.67 -7.64 7.34 -9 7 C-6.03 4.69 -3.06 2.38 0 0 Z " fill="#186CBE" transform="translate(259,168)"/>
<path d="M0 0 C2.475 0.495 2.475 0.495 5 1 C5.33 1.99 5.66 2.98 6 4 C5.34 4 4.68 4 4 4 C4 4.66 4 5.32 4 6 C2.02 6.99 2.02 6.99 0 8 C0.185625 7.236875 0.37125 6.47375 0.5625 5.6875 C1.22819173 2.91032625 1.22819173 2.91032625 0 0 Z " fill="#2086E1" transform="translate(353,236)"/>
<path d="M0 0 C0.66 0.99 1.32 1.98 2 3 C1.34 3 0.68 3 0 3 C-0.03738281 3.62648437 -0.07476562 4.25296875 -0.11328125 4.8984375 C-0.17902344 5.71570313 -0.24476563 6.53296875 -0.3125 7.375 C-0.37050781 8.18710938 -0.42851562 8.99921875 -0.48828125 9.8359375 C-1 12 -1 12 -4 14 C-3.00956295 9.16371695 -2.04301154 4.52381127 0 0 Z " fill="#1562B1" transform="translate(308,194)"/>
<path d="M0 0 C0.99 0 1.98 0 3 0 C3 0.99 3 1.98 3 3 C2.01 3 1.02 3 0 3 C-0.33 3.99 -0.66 4.98 -1 6 C-3.5625 7.1875 -3.5625 7.1875 -6 8 C-5.67 6.68 -5.34 5.36 -5 4 C-3.68 4 -2.36 4 -1 4 C-0.67 2.68 -0.34 1.36 0 0 Z " fill="#1261C2" transform="translate(373,225)"/>
<path d="M0 0 C1.32 0 2.64 0 4 0 C3.67 1.32 3.34 2.64 3 4 C2.34 4 1.68 4 1 4 C1 4.99 1 5.98 1 7 C-0.32 6.34 -1.64 5.68 -3 5 C-1.75 2.5 -1.75 2.5 0 0 Z " fill="#2092FA" transform="translate(230,209)"/>
<path d="M0 0 C3.36591866 1.44253657 5.51047079 3.33264727 8 6 C6.35 6.33 4.7 6.66 3 7 C2.01 4.69 1.02 2.38 0 0 Z " fill="#1870D0" transform="translate(232,205)"/>
<path d="M0 0 C0.66 0.33 1.32 0.66 2 1 C2 3.64 2 6.28 2 9 C0.02 9.99 0.02 9.99 -2 11 C-2.33 9.35 -2.66 7.7 -3 6 C-2.01 6.33 -1.02 6.66 0 7 C0 4.69 0 2.38 0 0 Z " fill="#196CBB" transform="translate(399,199)"/>
<path d="M0 0 C0.99 0 1.98 0 3 0 C3.99 2.31 4.98 4.62 6 7 C3.5625 6.3125 3.5625 6.3125 1 5 C0.1875 2.375 0.1875 2.375 0 0 Z " fill="#1B63B8" transform="translate(219,206)"/>
<path d="M0 0 C3.94139078 1.66751148 6.7892812 4.22710649 10 7 C9.01 7.33 8.02 7.66 7 8 C4.35247996 5.42215154 2.05567935 3.08351902 0 0 Z " fill="#146BB5" transform="translate(374,180)"/>
<path d="M0 0 C0.33 0.66 0.66 1.32 1 2 C-0.98 1.34 -2.96 0.68 -5 0 C-5 0.66 -5 1.32 -5 2 C-6.32 2 -7.64 2 -9 2 C-9 1.01 -9 0.02 -9 -1 C-5.25616401 -2.03995444 -3.27217674 -2.22040564 0 0 Z " fill="#2A9EF9" transform="translate(359,169)"/>
<path d="M0 0 C2.0625 0.4375 2.0625 0.4375 4 1 C1.47211993 3.79872437 -0.20411134 5.45773019 -4 6 C-1.125 1.125 -1.125 1.125 0 0 Z " fill="#2188DB" transform="translate(264,164)"/>
<path d="M0 0 C0.99 0 1.98 0 3 0 C2.44894091 3.9492568 1.61064629 7.34920174 0 11 C-1.0625 9.125 -1.0625 9.125 -2 7 C-1.67 6.34 -1.34 5.68 -1 5 C-0.34 5 0.32 5 1 5 C0.67 3.35 0.34 1.7 0 0 Z " fill="#1167B5" transform="translate(300,243)"/>
<path d="M0 0 C0.33 0 0.66 0 1 0 C0.85892253 1.45880109 0.71197585 2.91703551 0.5625 4.375 C0.48128906 5.18710938 0.40007812 5.99921875 0.31640625 6.8359375 C0 9 0 9 -1 11 C-1.66 11 -2.32 11 -3 11 C-2.44894091 7.0507432 -1.61064629 3.65079826 0 0 Z " fill="#1760B8" transform="translate(293,237)"/>
<path d="M0 0 C3.375 0.6875 3.375 0.6875 7 2 C8.4375 4.625 8.4375 4.625 9 7 C8.01 6.67 7.02 6.34 6 6 C6 5.34 6 4.68 6 4 C5.38125 3.896875 4.7625 3.79375 4.125 3.6875 C2 3 2 3 0 0 Z " fill="#1056B3" transform="translate(229,216)"/>
<path d="M0 0 C0.66 0.33 1.32 0.66 2 1 C1.67 2.32 1.34 3.64 1 5 C-3.75 6.125 -3.75 6.125 -6 5 C-4.02 3.35 -2.04 1.7 0 0 Z " fill="#1576C6" transform="translate(374,213)"/>
<path d="M0 0 C0.66 0.33 1.32 0.66 2 1 C2 2.65 2 4.3 2 6 C0.68 5.67 -0.64 5.34 -2 5 C-2.33 3.68 -2.66 2.36 -3 1 C-2.01 0.67 -1.02 0.34 0 0 Z " fill="#158CFA" transform="translate(235,190)"/>
<path d="M0 0 C1.2065625 0.0309375 1.2065625 0.0309375 2.4375 0.0625 C2.7675 1.0525 3.0975 2.0425 3.4375 3.0625 C1.4575 4.0525 1.4575 4.0525 -0.5625 5.0625 C-1.5525 3.7425 -2.5425 2.4225 -3.5625 1.0625 C-2.5625 0.0625 -2.5625 0.0625 0 0 Z " fill="#1379D5" transform="translate(248.5625,185.9375)"/>
<path d="M0 0 C0.66 0.33 1.32 0.66 2 1 C1.67 2.32 1.34 3.64 1 5 C-1.31 5.33 -3.62 5.66 -6 6 C-4 4 -2 2 0 0 Z " fill="#0F64B8" transform="translate(358,225)"/>
<path d="M0 0 C1.5 1.375 1.5 1.375 3 3 C3 3.66 3 4.32 3 5 C1.125 4.6875 1.125 4.6875 -1 4 C-1.66 3.01 -2.32 2.02 -3 1 C-2.01 0.67 -1.02 0.34 0 0 Z " fill="#1A75C8" transform="translate(264,239)"/>
<path d="M0 0 C0.99 0.33 1.98 0.66 3 1 C3 1.66 3 2.32 3 3 C1.35 3.66 -0.3 4.32 -2 5 C-2.33 4.01 -2.66 3.02 -3 2 C-2.01 2 -1.02 2 0 2 C0 1.34 0 0.68 0 0 Z " fill="#1774C3" transform="translate(268,172)"/>
<path d="M0 0 C0.33 0.99 0.66 1.98 1 3 C-0.4375 5.1875 -0.4375 5.1875 -2 7 C-2 6.34 -2 5.68 -2 5 C-2.99 4.67 -3.98 4.34 -5 4 C-5 3.34 -5 2.68 -5 2 C-3.35 2 -1.7 2 0 2 C0 1.34 0 0.68 0 0 Z " fill="#1872C1" transform="translate(329,167)"/>
<path d="M0 0 C0.66 0.33 1.32 0.66 2 1 C1.67 2.65 1.34 4.3 1 6 C0.34 6 -0.32 6 -1 6 C-1.33 6.66 -1.66 7.32 -2 8 C-1.125 1.125 -1.125 1.125 0 0 Z " fill="#25A2F4" transform="translate(328,163)"/>
</svg>
